# xmcd
#
# Track frame offsets: 
#        150
#        14517
#        31196
#        48344
#        62373
#        81709
#        98645
#        116354
#        130510
#        148416
#        165853
#        186379
#
# Disc length: 2661 seconds
#
# Revision: 0
# Processed by: cddbd v1.5.1PL0 Copyright (c) Steve Scherf et al.
# Submitted via: ExactAudioCopy v0.90b4
#
DISCID=990a630c
DTITLE=Tenderloud - Shadow Red Hand
DYEAR=2004
DGENRE=Country
TTITLE0=1956
TTITLE1=Pass Me By
TTITLE2=Liquor Eyes
TTITLE3=Happy Days - The Feast
TTITLE4=White Lines
TTITLE5=45 Mile Man
TTITLE6=Horses of the Woods
TTITLE7=Shadow Red Hand
TTITLE8=Texas Down
TTITLE9=Down My Way
TTITLE10=Old River Town
TTITLE11=Kneeling Heart
EXTD=
EXTT0=
EXTT1=
EXTT2=
EXTT3=
EXTT4=
EXTT5=
EXTT6=
EXTT7=
EXTT8=
EXTT9=
EXTT10=
EXTT11=
PLAYORDER=
